<svg width="21" height="16" viewBox="0 0 21 16" fill="none" xmlns="http://www.w3.org/2000/svg">
<g clip-path="url(#clip0)">
<mask id="path-2-inside-1" fill="white">
<path d="M3.20295 3.81357C4.46922 3.81357 5.51743 3.10968 5.69303 2.19791H19.7555C19.9545 2.19791 20.1153 2.07754 20.1153 1.92864C20.1153 1.77973 19.9545 1.65936 19.7555 1.65936H5.69303C5.51743 0.747589 4.46922 0.0437012 3.20295 0.0437012C1.81397 0.0437012 0.684082 0.889498 0.684082 1.92864C0.684082 2.96777 1.81397 3.81357 3.20295 3.81357ZM3.20295 0.582254C4.19502 0.582254 5.00214 1.18624 5.00214 1.92864C5.00214 2.67103 4.19502 3.27502 3.20295 3.27502C2.21088 3.27502 1.40376 2.67103 1.40376 1.92864C1.40376 1.18624 2.21088 0.582254 3.20295 0.582254Z"/>
</mask>
<path d="M3.20295 3.81357C4.46922 3.81357 5.51743 3.10968 5.69303 2.19791H19.7555C19.9545 2.19791 20.1153 2.07754 20.1153 1.92864C20.1153 1.77973 19.9545 1.65936 19.7555 1.65936H5.69303C5.51743 0.747589 4.46922 0.0437012 3.20295 0.0437012C1.81397 0.0437012 0.684082 0.889498 0.684082 1.92864C0.684082 2.96777 1.81397 3.81357 3.20295 3.81357ZM3.20295 0.582254C4.19502 0.582254 5.00214 1.18624 5.00214 1.92864C5.00214 2.67103 4.19502 3.27502 3.20295 3.27502C2.21088 3.27502 1.40376 2.67103 1.40376 1.92864C1.40376 1.18624 2.21088 0.582254 3.20295 0.582254Z" fill="white"/>
<path d="M5.69303 2.19791V1.19791H4.86725L4.71108 2.00879L5.69303 2.19791ZM5.69303 1.65936L4.71108 1.84848L4.86725 2.65936H5.69303V1.65936ZM3.20295 4.81357C4.74611 4.81357 6.37522 3.94348 6.67498 2.38703L4.71108 2.00879C4.65964 2.27588 4.19233 2.81357 3.20295 2.81357V4.81357ZM5.69303 3.19791H19.7555V1.19791H5.69303V3.19791ZM19.7555 3.19791C20.0493 3.19791 20.3546 3.11028 20.6092 2.91976C20.8644 2.7288 21.1153 2.38859 21.1153 1.92864H19.1153C19.1153 1.61759 19.2859 1.41202 19.4109 1.31847C19.5353 1.22536 19.6607 1.19791 19.7555 1.19791V3.19791ZM21.1153 1.92864C21.1153 1.46868 20.8644 1.12847 20.6092 0.937513C20.3546 0.746988 20.0493 0.659359 19.7555 0.659359V2.65936C19.6607 2.65936 19.5353 2.63191 19.4109 2.5388C19.2859 2.44525 19.1153 2.23968 19.1153 1.92864H21.1153ZM19.7555 0.659359H5.69303V2.65936H19.7555V0.659359ZM6.67498 1.47024C6.37522 -0.086209 4.74611 -0.956299 3.20295 -0.956299V1.0437C4.19233 1.0437 4.65964 1.58139 4.71108 1.84848L6.67498 1.47024ZM3.20295 -0.956299C2.31276 -0.956299 1.4681 -0.686566 0.82347 -0.204123C0.179074 0.278143 -0.315918 1.02178 -0.315918 1.92864H1.68408C1.68408 1.79636 1.75404 1.59752 2.02183 1.39711C2.28939 1.19687 2.70416 1.0437 3.20295 1.0437V-0.956299ZM-0.315918 1.92864C-0.315918 2.83549 0.179074 3.57913 0.82347 4.06139C1.4681 4.54384 2.31276 4.81357 3.20295 4.81357V2.81357C2.70416 2.81357 2.28939 2.6604 2.02183 2.46016C1.75404 2.25975 1.68408 2.06091 1.68408 1.92864H-0.315918ZM3.20295 1.58225C3.50334 1.58225 3.7382 1.675 3.87543 1.77769C3.94228 1.82772 3.97571 1.87195 3.99032 1.89776C3.9974 1.91026 4.00011 1.91838 4.00111 1.92204C4.00204 1.92542 4.00214 1.92718 4.00214 1.92864H6.00214C6.00214 1.17016 5.58786 0.561148 5.07371 0.176403C4.55937 -0.208495 3.89464 -0.417746 3.20295 -0.417746V1.58225ZM4.00214 1.92864C4.00214 1.93009 4.00204 1.93185 4.00111 1.93523C4.00011 1.93889 3.9974 1.94701 3.99032 1.95951C3.97571 1.98532 3.94228 2.02955 3.87543 2.07958C3.7382 2.18227 3.50334 2.27502 3.20295 2.27502V4.27502C3.89464 4.27502 4.55937 4.06577 5.07371 3.68087C5.58786 3.29612 6.00214 2.68711 6.00214 1.92864H4.00214ZM3.20295 2.27502C2.90256 2.27502 2.6677 2.18227 2.53047 2.07958C2.46361 2.02955 2.43019 1.98532 2.41557 1.95951C2.4085 1.94701 2.40579 1.93889 2.40479 1.93523C2.40386 1.93185 2.40376 1.93009 2.40376 1.92864H0.403759C0.403759 2.68711 0.818044 3.29612 1.33218 3.68087C1.84653 4.06577 2.51126 4.27502 3.20295 4.27502V2.27502ZM2.40376 1.92864C2.40376 1.92718 2.40386 1.92542 2.40479 1.92204C2.40579 1.91838 2.4085 1.91026 2.41557 1.89776C2.43019 1.87195 2.46361 1.82772 2.53047 1.77769C2.6677 1.675 2.90256 1.58225 3.20295 1.58225V-0.417746C2.51126 -0.417746 1.84653 -0.208495 1.33218 0.176403C0.818044 0.561148 0.403759 1.17016 0.403759 1.92864H2.40376Z" fill="white" mask="url(#path-2-inside-1)"/>
<mask id="path-4-inside-2" fill="white">
<path d="M17.5965 11.3533C16.3302 11.3533 15.282 12.0572 15.1064 12.969H1.04392C0.84529 12.969 0.684082 13.0894 0.684082 13.2383C0.684082 13.3872 0.84529 13.5075 1.04392 13.5075H15.1064C15.282 14.4193 16.3302 15.1232 17.5965 15.1232C18.9851 15.1232 20.1153 14.2774 20.1153 13.2383C20.1153 12.1991 18.9851 11.3533 17.5965 11.3533ZM17.5965 14.5846C16.6044 14.5846 15.7973 13.9807 15.7973 13.2383C15.7973 12.4959 16.6044 11.8919 17.5965 11.8919C18.5886 11.8919 19.3957 12.4959 19.3957 13.2383C19.3957 13.9807 18.5886 14.5846 17.5965 14.5846Z"/>
</mask>
<path d="M17.5965 11.3533C16.3302 11.3533 15.282 12.0572 15.1064 12.969H1.04392C0.84529 12.969 0.684082 13.0894 0.684082 13.2383C0.684082 13.3872 0.84529 13.5075 1.04392 13.5075H15.1064C15.282 14.4193 16.3302 15.1232 17.5965 15.1232C18.9851 15.1232 20.1153 14.2774 20.1153 13.2383C20.1153 12.1991 18.9851 11.3533 17.5965 11.3533ZM17.5965 14.5846C16.6044 14.5846 15.7973 13.9807 15.7973 13.2383C15.7973 12.4959 16.6044 11.8919 17.5965 11.8919C18.5886 11.8919 19.3957 12.4959 19.3957 13.2383C19.3957 13.9807 18.5886 14.5846 17.5965 14.5846Z" fill="white"/>
<path d="M15.1064 12.969V13.969H15.9322L16.0884 13.1581L15.1064 12.969ZM15.1064 13.5075L16.0884 13.3184L15.9322 12.5075H15.1064V13.5075ZM17.5965 10.3533C16.0533 10.3533 14.4242 11.2234 14.1244 12.7799L16.0884 13.1581C16.1398 12.891 16.6071 12.3533 17.5965 12.3533V10.3533ZM15.1064 11.969H1.04392V13.969H15.1064V11.969ZM1.04392 11.969C0.749967 11.969 0.444941 12.0568 0.190638 12.2469C-0.0640719 12.4374 -0.315918 12.7775 -0.315918 13.2383H1.68408C1.68408 13.5501 1.51284 13.7556 1.38839 13.8486C1.26435 13.9414 1.13924 13.969 1.04392 13.969V11.969ZM-0.315918 13.2383C-0.315918 13.699 -0.0640719 14.0391 0.190638 14.2296C0.444941 14.4198 0.749967 14.5075 1.04392 14.5075V12.5075C1.13924 12.5075 1.26435 12.5351 1.38839 12.6279C1.51284 12.721 1.68408 12.9264 1.68408 13.2383H-0.315918ZM1.04392 14.5075H15.1064V12.5075H1.04392V14.5075ZM14.1244 13.6967C14.4242 15.2531 16.0533 16.1232 17.5965 16.1232V14.1232C16.6071 14.1232 16.1398 13.5855 16.0884 13.3184L14.1244 13.6967ZM17.5965 16.1232C18.4865 16.1232 19.3312 15.8534 19.9758 15.3711C20.6202 14.8889 21.1153 14.1452 21.1153 13.2383H19.1153C19.1153 13.3704 19.0454 13.5693 18.7775 13.7698C18.5099 13.9701 18.095 14.1232 17.5965 14.1232V16.1232ZM21.1153 13.2383C21.1153 12.3313 20.6202 11.5877 19.9758 11.1055C19.3312 10.6231 18.4865 10.3533 17.5965 10.3533V12.3533C18.095 12.3533 18.5099 12.5065 18.7775 12.7068C19.0454 12.9073 19.1153 13.1061 19.1153 13.2383H21.1153ZM17.5965 13.5846C17.2961 13.5846 17.0612 13.4919 16.924 13.3892C16.8571 13.3392 16.8237 13.2949 16.8091 13.2691C16.802 13.2566 16.7993 13.2485 16.7983 13.2449C16.7974 13.2415 16.7973 13.2397 16.7973 13.2383H14.7973C14.7973 13.9967 15.2116 14.6058 15.7257 14.9905C16.2401 15.3754 16.9048 15.5846 17.5965 15.5846V13.5846ZM16.7973 13.2383C16.7973 13.2368 16.7974 13.235 16.7983 13.2317C16.7993 13.228 16.802 13.2199 16.8091 13.2074C16.8237 13.1816 16.8571 13.1373 16.924 13.0873C17.0612 12.9846 17.2961 12.8919 17.5965 12.8919V10.8919C16.9048 10.8919 16.2401 11.1011 15.7257 11.486C15.2116 11.8708 14.7973 12.4798 14.7973 13.2383H16.7973ZM17.5965 12.8919C17.8969 12.8919 18.1317 12.9846 18.269 13.0873C18.3358 13.1373 18.3692 13.1816 18.3839 13.2074C18.3909 13.2199 18.3936 13.228 18.3946 13.2317C18.3956 13.235 18.3957 13.2368 18.3957 13.2383H20.3957C20.3957 12.4798 19.9814 11.8708 19.4672 11.486C18.9529 11.1011 18.2882 10.8919 17.5965 10.8919V12.8919ZM18.3957 13.2383C18.3957 13.2397 18.3956 13.2415 18.3946 13.2449C18.3936 13.2485 18.3909 13.2566 18.3839 13.2691C18.3692 13.2949 18.3358 13.3392 18.269 13.3892C18.1317 13.4919 17.8969 13.5846 17.5965 13.5846V15.5846C18.2882 15.5846 18.9529 15.3754 19.4672 14.9905C19.9814 14.6058 20.3957 13.9967 20.3957 13.2383H18.3957Z" fill="white" mask="url(#path-4-inside-2)"/>
<mask id="path-6-inside-3" fill="white">
<path d="M19.7555 7.31417H13.051C12.9085 6.34424 11.8078 5.58704 10.4742 5.58704C9.14064 5.58704 8.0399 6.34451 7.8974 7.31417H1.04392C0.84529 7.31417 0.684082 7.43454 0.684082 7.58345C0.684082 7.73236 0.84529 7.85273 1.04392 7.85273H7.92007C8.1277 8.76827 9.19246 9.46838 10.4742 9.46838C11.7559 9.46838 12.8203 8.76827 13.028 7.85273H19.7555C19.9545 7.85273 20.1153 7.73236 20.1153 7.58345C20.1153 7.43454 19.9545 7.31417 19.7555 7.31417ZM10.4742 8.92983C9.44111 8.92983 8.60052 8.3008 8.60052 7.52771C8.60052 6.75462 9.44111 6.12559 10.4742 6.12559C11.5073 6.12559 12.3479 6.75462 12.3479 7.52771C12.3479 8.3008 11.5073 8.92983 10.4742 8.92983Z"/>
</mask>
<path d="M19.7555 7.31417H13.051C12.9085 6.34424 11.8078 5.58704 10.4742 5.58704C9.14064 5.58704 8.0399 6.34451 7.8974 7.31417H1.04392C0.84529 7.31417 0.684082 7.43454 0.684082 7.58345C0.684082 7.73236 0.84529 7.85273 1.04392 7.85273H7.92007C8.1277 8.76827 9.19246 9.46838 10.4742 9.46838C11.7559 9.46838 12.8203 8.76827 13.028 7.85273H19.7555C19.9545 7.85273 20.1153 7.73236 20.1153 7.58345C20.1153 7.43454 19.9545 7.31417 19.7555 7.31417ZM10.4742 8.92983C9.44111 8.92983 8.60052 8.3008 8.60052 7.52771C8.60052 6.75462 9.44111 6.12559 10.4742 6.12559C11.5073 6.12559 12.3479 6.75462 12.3479 7.52771C12.3479 8.3008 11.5073 8.92983 10.4742 8.92983Z" fill="white"/>
<path d="M13.051 7.31417L12.0616 7.45953L12.1872 8.31417H13.051V7.31417ZM7.8974 7.31417V8.31417H8.76119L8.88677 7.45957L7.8974 7.31417ZM7.92007 7.85273L8.89531 7.63156L8.71868 6.85273H7.92007V7.85273ZM13.028 7.85273V6.85273H12.2294L12.0527 7.63156L13.028 7.85273ZM19.7555 6.31417H13.051V8.31417H19.7555V6.31417ZM14.0404 7.16882C13.7976 5.51632 12.0816 4.58704 10.4742 4.58704V6.58704C11.5339 6.58704 12.0194 7.17216 12.0616 7.45953L14.0404 7.16882ZM10.4742 4.58704C8.86666 4.58704 7.15081 5.51668 6.90803 7.16878L8.88677 7.45957C8.92898 7.17234 9.41463 6.58704 10.4742 6.58704V4.58704ZM7.8974 6.31417H1.04392V8.31417H7.8974V6.31417ZM1.04392 6.31417C0.749967 6.31417 0.444941 6.40196 0.190638 6.59213C-0.0640718 6.7826 -0.315918 7.12271 -0.315918 7.58345H1.68408C1.68408 7.89528 1.51284 8.10075 1.38839 8.19381C1.26435 8.28657 1.13924 8.31417 1.04392 8.31417V6.31417ZM-0.315918 7.58345C-0.315918 8.04419 -0.0640718 8.3843 0.190638 8.57477C0.444941 8.76494 0.749967 8.85273 1.04392 8.85273V6.85273C1.13924 6.85273 1.26435 6.88033 1.38839 6.97309C1.51284 7.06615 1.68408 7.27162 1.68408 7.58345H-0.315918ZM1.04392 8.85273H7.92007V6.85273H1.04392V8.85273ZM6.94483 8.07389C7.29259 9.60736 8.9153 10.4684 10.4742 10.4684V8.46838C9.46961 8.46838 8.9628 7.92917 8.89531 7.63156L6.94483 8.07389ZM10.4742 10.4684C12.0333 10.4684 13.6555 9.60723 14.0032 8.07389L12.0527 7.63156C11.9852 7.9293 11.4786 8.46838 10.4742 8.46838V10.4684ZM13.028 8.85273H19.7555V6.85273H13.028V8.85273ZM19.7555 8.85273C20.0493 8.85273 20.3546 8.7651 20.6092 8.57457C20.8644 8.38362 21.1153 8.0434 21.1153 7.58345H19.1153C19.1153 7.27241 19.2859 7.06683 19.4109 6.97329C19.5353 6.88017 19.6607 6.85273 19.7555 6.85273V8.85273ZM21.1153 7.58345C21.1153 7.1235 20.8644 6.78328 20.6092 6.59233C20.3546 6.4018 20.0493 6.31417 19.7555 6.31417V8.31417C19.6607 8.31417 19.5353 8.28673 19.4109 8.19361C19.2859 8.10007 19.1153 7.89449 19.1153 7.58345H21.1153ZM10.4742 7.92983C10.1533 7.92983 9.89983 7.83084 9.74909 7.71804C9.67548 7.66295 9.63659 7.6127 9.6182 7.58023C9.60141 7.55058 9.60052 7.53475 9.60052 7.52771H7.60052C7.60052 8.30156 8.0232 8.9245 8.55081 9.31932C9.07863 9.71431 9.76198 9.92983 10.4742 9.92983V7.92983ZM9.60052 7.52771C9.60052 7.52067 9.60141 7.50484 9.6182 7.47519C9.63659 7.44272 9.67548 7.39247 9.74909 7.33738C9.89983 7.22458 10.1533 7.12559 10.4742 7.12559V5.12559C9.76198 5.12559 9.07863 5.34111 8.55081 5.7361C8.0232 6.13092 7.60052 6.75386 7.60052 7.52771H9.60052ZM10.4742 7.12559C10.7951 7.12559 11.0486 7.22458 11.1993 7.33738C11.2729 7.39247 11.3118 7.44272 11.3302 7.47519C11.347 7.50484 11.3479 7.52067 11.3479 7.52771H13.3479C13.3479 6.75386 12.9252 6.13092 12.3976 5.7361C11.8698 5.34111 11.1864 5.12559 10.4742 5.12559V7.12559ZM11.3479 7.52771C11.3479 7.53475 11.347 7.55058 11.3302 7.58023C11.3118 7.6127 11.2729 7.66295 11.1993 7.71804C11.0486 7.83084 10.7951 7.92983 10.4742 7.92983V9.92983C11.1864 9.92983 11.8698 9.71431 12.3976 9.31932C12.9252 8.9245 13.3479 8.30156 13.3479 7.52771H11.3479Z" fill="white" mask="url(#path-6-inside-3)"/>
</g>
<defs>
<clipPath id="clip0">
<rect x="0.324219" y="0.0437012" width="20.1509" height="15.0795" fill="white"/>
</clipPath>
</defs>
</svg>
