<svg width="20" height="14" viewBox="0 0 20 14" fill="none" xmlns="http://www.w3.org/2000/svg">
<path d="M17.9167 0.333313H2.08332C0.935 0.333313 0 1.26831 0 2.41667V11.5834C0 12.7317 0.935 13.6667 2.08332 13.6667H17.9166C19.065 13.6667 20 12.7317 20 11.5834V2.41667C20 1.26831 19.065 0.333313 17.9167 0.333313ZM19.1667 11.5833C19.1667 12.2725 18.6059 12.8333 17.9167 12.8333H2.08332C1.39414 12.8333 0.83332 12.2725 0.83332 11.5833V2.41667C0.83332 1.72749 1.39414 1.16667 2.08332 1.16667H17.9166C18.6058 1.16667 19.1666 1.72749 19.1666 2.41667V11.5833H19.1667Z" fill="white"/>
<path d="M19.5833 2.83331H0.41668C0.18668 2.83331 0 3.01999 0 3.24999V5.74999C0 5.97999 0.18668 6.16667 0.41668 6.16667H19.5834C19.8134 6.16667 20 5.97999 20 5.74999V3.24999C20 3.01999 19.8133 2.83331 19.5833 2.83331ZM19.1667 5.33331H0.83332V3.66663H19.1666V5.33331H19.1667Z" fill="white"/>
<path d="M7.91668 8.66669H2.91668C2.68668 8.66669 2.5 8.85337 2.5 9.08337C2.5 9.31337 2.68668 9.50001 2.91668 9.50001H7.91668C8.14668 9.50001 8.33336 9.31333 8.33336 9.08333C8.33336 8.85333 8.14668 8.66669 7.91668 8.66669Z" fill="white"/>
<path d="M7.91668 10.3333H2.91668C2.68668 10.3333 2.5 10.52 2.5 10.75C2.5 10.98 2.68668 11.1667 2.91668 11.1667H7.91668C8.14668 11.1667 8.33336 10.98 8.33336 10.75C8.33332 10.52 8.14668 10.3333 7.91668 10.3333Z" fill="white"/>
<path d="M16.2498 7.83331H15.4165C14.7273 7.83331 14.1665 8.39413 14.1665 9.08331V9.91663C14.1665 10.6058 14.7273 11.1666 15.4165 11.1666H16.2498C16.939 11.1666 17.4998 10.6058 17.4998 9.91663V9.08331C17.4998 8.39417 16.939 7.83331 16.2498 7.83331ZM16.6665 9.91667C16.6665 10.1467 16.4798 10.3334 16.2498 10.3334H15.4165C15.1865 10.3334 14.9998 10.1467 14.9998 9.91667V9.08335C14.9998 8.85335 15.1865 8.66667 15.4165 8.66667H16.2498C16.4798 8.66667 16.6665 8.85335 16.6665 9.08335V9.91667Z" fill="white"/>
</svg>
