<svg width="135" height="40" viewBox="0 0 135 40" fill="none" xmlns="http://www.w3.org/2000/svg">
<g clip-path="url(#clip0)">
<path d="M130.197 40H4.73C3.47582 39.9974 2.27381 39.4978 1.38725 38.6106C0.500686 37.7235 0.00184938 36.5212 0 35.267L0 4.727C0.00158907 3.47329 0.500533 2.27143 1.38732 1.3852C2.27411 0.498975 3.47629 0.000793655 4.73 0L130.197 0C132.803 0 135 2.12 135 4.726V35.266C135 37.872 132.803 40 130.197 40Z" fill="#A6A6A6"/>
<path d="M134.032 35.268C134.032 35.7713 133.933 36.2697 133.74 36.7346C133.547 37.1996 133.265 37.6219 132.909 37.9776C132.553 38.3334 132.13 38.6154 131.665 38.8076C131.2 38.9999 130.701 39.0985 130.198 39.098H4.72801C3.71126 39.0988 2.73579 38.6958 2.01609 37.9776C1.29638 37.2594 0.89134 36.2848 0.890015 35.268V4.72501C0.89134 3.70745 1.29649 2.73201 2.01649 2.01296C2.73649 1.2939 3.71245 0.890014 4.73001 0.890015H130.197C132.317 0.890015 134.031 2.61001 134.031 4.72501L134.041 35.268H134.032Z" fill="black"/>
<path d="M30.128 19.784C30.098 16.561 32.768 14.994 32.888 14.92C31.378 12.717 29.036 12.416 28.213 12.392C26.246 12.185 24.338 13.569 23.336 13.569C22.314 13.569 20.771 12.409 19.108 12.439C16.968 12.469 14.966 13.709 13.868 15.633C11.602 19.556 13.292 25.323 15.463 28.493C16.549 30.045 17.818 31.779 19.479 31.718C21.099 31.651 21.709 30.682 23.669 30.682C25.609 30.682 26.179 31.718 27.869 31.679C29.613 31.652 30.709 30.119 31.759 28.553C33.014 26.773 33.519 25.023 33.539 24.933C33.499 24.919 30.152 23.643 30.119 19.779L30.128 19.784ZM26.928 10.306C27.802 9.213 28.4 7.726 28.234 6.216C26.969 6.273 25.387 7.092 24.476 8.161C23.67 9.111 22.95 10.651 23.136 12.101C24.556 12.211 26.016 11.391 26.928 10.311V10.306ZM53.645 31.504H51.375L50.13 27.594H45.806L44.621 31.504H42.411L46.701 18.196H49.351L53.656 31.504H53.645ZM49.755 25.954L48.63 22.48C48.51 22.125 48.288 21.29 47.96 19.973H47.92C47.7202 20.8115 47.5092 21.6472 47.287 22.48L46.182 25.955H49.755V25.954ZM64.662 26.588C64.662 28.22 64.222 29.51 63.339 30.458C62.549 31.3 61.559 31.721 60.389 31.721C59.124 31.721 58.219 31.271 57.663 30.361H57.623V35.421H55.5V25.07C55.5 24.044 55.473 22.99 55.42 21.91H57.296L57.416 23.432H57.456C58.166 22.282 59.246 21.712 60.693 21.712C61.825 21.712 62.77 22.159 63.526 23.052C64.284 23.95 64.662 25.128 64.662 26.589V26.588ZM62.49 26.666C62.49 25.732 62.28 24.962 61.858 24.356C61.398 23.724 60.778 23.408 60.002 23.408C59.476 23.408 58.998 23.584 58.572 23.931C58.142 24.281 57.862 24.741 57.732 25.311C57.6733 25.523 57.6397 25.7412 57.632 25.961V27.561C57.632 28.261 57.847 28.851 58.275 29.331C58.703 29.811 59.259 30.051 59.943 30.051C60.746 30.051 61.371 29.741 61.818 29.124C62.266 28.504 62.49 27.689 62.49 26.674V26.666ZM75.7 26.588C75.7 28.22 75.258 29.51 74.375 30.458C73.585 31.3 72.605 31.721 71.435 31.721C70.17 31.721 69.262 31.271 68.71 30.361H68.67V35.421H66.538V25.07C66.538 24.044 66.511 22.99 66.458 21.91H68.334L68.454 23.432H68.494C69.204 22.282 70.282 21.712 71.731 21.712C72.871 21.712 73.811 22.159 74.571 23.052C75.329 23.95 75.708 25.128 75.708 26.589L75.7 26.588ZM73.527 26.666C73.527 25.732 73.317 24.962 72.894 24.356C72.434 23.724 71.816 23.408 71.039 23.408C70.5122 23.4059 70.0018 23.5913 69.599 23.931C69.1698 24.2817 68.8734 24.7687 68.759 25.311C68.7003 25.523 68.6667 25.7412 68.659 25.961V27.561C68.659 28.261 68.874 28.851 69.299 29.331C69.729 29.811 70.284 30.051 70.969 30.051C71.773 30.051 72.399 29.741 72.845 29.124C73.295 28.504 73.517 27.689 73.517 26.674L73.527 26.666ZM88.04 27.772C88.04 28.904 87.646 29.825 86.857 30.536C85.99 31.313 84.783 31.701 83.232 31.701C81.8 31.701 80.652 31.431 79.782 30.881L80.277 29.104C81.213 29.67 82.24 29.954 83.359 29.954C84.159 29.954 84.779 29.772 85.229 29.41C85.674 29.05 85.899 28.562 85.899 27.956C85.899 27.416 85.713 26.961 85.344 26.592C84.977 26.222 84.364 25.88 83.508 25.562C81.178 24.692 80.014 23.422 80.014 21.747C80.014 20.654 80.424 19.757 81.241 19.057C82.055 18.36 83.141 18.011 84.499 18.011C85.709 18.011 86.717 18.221 87.519 18.644L86.987 20.384C86.237 19.976 85.387 19.774 84.439 19.774C83.689 19.774 83.103 19.957 82.683 20.324C82.5124 20.4747 82.3763 20.6605 82.2842 20.8686C82.192 21.0768 82.1459 21.3024 82.149 21.53C82.149 22.057 82.352 22.49 82.759 22.834C83.115 23.151 83.759 23.494 84.696 23.862C85.842 24.322 86.683 24.862 87.226 25.482C87.766 26.098 88.036 26.869 88.036 27.789L88.04 27.772ZM95.088 23.508H92.738V28.168C92.738 29.352 93.152 29.944 93.982 29.944C94.362 29.944 94.679 29.911 94.929 29.844L94.979 31.464C94.559 31.621 94.006 31.7 93.321 31.7C92.478 31.7 91.821 31.443 91.345 30.93C90.872 30.416 90.635 29.554 90.635 28.343V23.506H89.235V21.906H90.635V20.15L92.728 19.517V21.907H95.078V23.507L95.088 23.508ZM105.69 26.628C105.69 28.102 105.27 29.313 104.427 30.26C103.544 31.235 102.372 31.72 100.911 31.72C99.511 31.72 98.391 31.254 97.551 30.32C96.711 29.386 96.301 28.207 96.301 26.786C96.301 25.299 96.731 24.081 97.595 23.134C98.455 22.186 99.618 21.712 101.079 21.712C102.487 21.712 103.619 22.179 104.475 23.114C105.291 24.021 105.699 25.192 105.699 26.627L105.69 26.628ZM103.48 26.698C103.48 25.811 103.29 25.052 102.907 24.418C102.46 23.652 101.821 23.268 100.993 23.268C100.136 23.268 99.485 23.653 99.038 24.418C98.655 25.052 98.466 25.823 98.466 26.735C98.466 27.62 98.656 28.379 99.038 29.011C99.498 29.781 100.143 30.161 100.974 30.161C101.788 30.161 102.427 29.771 102.888 28.991C103.281 28.351 103.478 27.581 103.478 26.701L103.48 26.698ZM112.62 23.783C112.399 23.7421 112.175 23.722 111.95 23.723C111.2 23.723 110.62 24.007 110.21 24.573C109.856 25.073 109.678 25.706 109.678 26.469V31.499H107.548L107.568 24.919C107.57 23.9118 107.543 22.9047 107.488 21.899H109.344L109.422 23.734H109.482C109.706 23.104 110.062 22.594 110.547 22.214C110.991 21.8809 111.532 21.7003 112.087 21.699C112.285 21.699 112.463 21.715 112.621 21.739V23.773L112.62 23.783ZM122.156 26.253C122.161 26.5768 122.135 26.9003 122.078 27.219H115.682C115.707 28.159 116.016 28.889 116.61 29.389C117.15 29.829 117.846 30.059 118.702 30.059C119.649 30.059 120.512 29.909 121.29 29.599L121.624 31.079C120.716 31.475 119.644 31.672 118.407 31.672C116.919 31.672 115.751 31.232 114.901 30.358C114.061 29.482 113.631 28.308 113.631 26.833C113.631 25.386 114.031 24.183 114.821 23.22C115.651 22.193 116.771 21.68 118.178 21.68C119.561 21.68 120.608 22.193 121.318 23.22C121.882 24.034 122.165 25.042 122.165 26.24L122.156 26.253ZM120.123 25.699C120.137 25.059 119.998 24.519 119.709 24.059C119.339 23.459 118.769 23.169 118.009 23.169C117.309 23.169 116.739 23.459 116.309 24.039C115.949 24.499 115.739 25.049 115.679 25.689H120.119L120.123 25.699ZM49.05 10.01C49.05 11.186 48.697 12.072 47.992 12.667C47.339 13.217 46.412 13.491 45.209 13.491C44.6948 13.4982 44.1805 13.4749 43.669 13.421V6.99C44.2654 6.89604 44.8683 6.84989 45.472 6.852C46.617 6.852 47.482 7.102 48.062 7.599C48.714 8.159 49.042 8.964 49.042 10.012L49.05 10.01ZM47.945 10.038C47.945 9.275 47.743 8.69 47.339 8.282C46.929 7.875 46.339 7.672 45.559 7.672C45.229 7.672 44.949 7.692 44.715 7.739V12.619C44.845 12.639 45.08 12.649 45.425 12.649C46.225 12.649 46.845 12.425 47.281 11.979C47.717 11.533 47.936 10.883 47.936 10.029L47.945 10.038ZM54.91 11.038C54.91 11.762 54.702 12.358 54.288 12.822C53.854 13.302 53.278 13.54 52.561 13.54C51.871 13.54 51.321 13.31 50.911 12.85C50.501 12.392 50.301 11.813 50.301 11.115C50.301 10.385 50.511 9.785 50.936 9.321C51.361 8.857 51.93 8.631 52.646 8.631C53.336 8.631 53.896 8.861 54.316 9.321C54.716 9.767 54.916 10.343 54.916 11.047L54.91 11.038ZM53.822 11.071C53.822 10.641 53.728 10.271 53.542 9.961C53.322 9.585 53.008 9.397 52.602 9.397C52.18 9.397 51.86 9.585 51.64 9.961C51.452 10.271 51.36 10.651 51.36 11.098C51.36 11.535 51.453 11.908 51.64 12.218C51.867 12.595 52.183 12.783 52.59 12.783C52.99 12.783 53.305 12.593 53.53 12.209C53.725 11.892 53.822 11.516 53.822 11.079V11.071ZM62.765 8.721L61.29 13.441H60.33L59.72 11.395C59.5674 10.8942 59.4406 10.3858 59.34 9.872H59.32C59.23 10.3883 59.1037 10.8975 58.942 11.396L58.292 13.441H57.322L55.935 8.721H57.012L57.545 10.961C57.675 11.491 57.78 11.996 57.865 12.474H57.885C57.962 12.08 58.091 11.578 58.273 10.971L58.943 8.721H59.796L60.436 10.923C60.592 11.46 60.718 11.977 60.816 12.475H60.844C60.914 11.99 61.022 11.473 61.164 10.923L61.736 8.721H62.766H62.765ZM68.198 13.441H67.15V10.741C67.15 9.909 66.834 9.491 66.2 9.491C66.056 9.4869 65.9129 9.51576 65.7817 9.57537C65.6505 9.63499 65.5347 9.72379 65.443 9.835C65.25 10.065 65.153 10.335 65.153 10.643V13.44H64.103V10.07C64.1022 9.61976 64.0899 9.16961 64.066 8.72H64.986L65.036 9.458H65.066C65.1928 9.22317 65.3799 9.02641 65.608 8.888C65.8933 8.7118 66.2227 8.62024 66.558 8.624C66.998 8.624 67.364 8.768 67.655 9.054C68.017 9.404 68.198 9.924 68.198 10.614V13.437V13.441ZM71.088 13.441H70.04V6.56H71.088V13.437V13.441ZM77.258 11.045C77.258 11.77 77.051 12.365 76.638 12.83C76.203 13.31 75.628 13.547 74.91 13.547C74.217 13.547 73.666 13.317 73.256 12.857C72.846 12.4 72.641 11.821 72.641 11.123C72.641 10.393 72.861 9.793 73.281 9.329C73.701 8.865 74.279 8.632 74.991 8.632C75.689 8.632 76.241 8.862 76.661 9.319C77.061 9.765 77.261 10.341 77.261 11.045H77.258ZM76.17 11.079C76.17 10.646 76.076 10.273 75.89 9.962C75.67 9.586 75.356 9.398 74.95 9.398C74.528 9.398 74.208 9.586 73.99 9.962C73.8 10.272 73.708 10.652 73.708 11.098C73.708 11.534 73.802 11.908 73.988 12.218C74.216 12.594 74.532 12.782 74.94 12.782C75.34 12.782 75.653 12.592 75.88 12.208C76.074 11.89 76.17 11.514 76.17 11.078V11.079ZM82.33 13.442H81.39L81.31 12.899H81.282C80.96 13.332 80.502 13.549 79.905 13.549C79.46 13.549 79.1 13.406 78.829 13.122C78.7072 12.9943 78.6117 12.8437 78.5482 12.6789C78.4847 12.5142 78.4544 12.3385 78.459 12.162C78.459 11.584 78.699 11.145 79.179 10.842C79.659 10.537 80.339 10.388 81.209 10.395V10.305C81.209 9.685 80.881 9.375 80.229 9.375C79.7933 9.3667 79.3651 9.48856 78.999 9.725L78.786 9.035C79.226 8.765 79.766 8.63 80.403 8.63C81.635 8.63 82.253 9.28 82.253 10.58V12.315C82.253 12.785 82.276 13.159 82.323 13.435L82.33 13.442ZM81.242 11.822V11.095C80.086 11.075 79.508 11.39 79.508 12.045C79.508 12.289 79.574 12.475 79.708 12.595C79.849 12.72 80.0327 12.7859 80.221 12.779C80.451 12.779 80.671 12.706 80.871 12.561C80.9901 12.4775 81.0869 12.3661 81.1532 12.2366C81.2194 12.1071 81.253 11.9634 81.251 11.818L81.242 11.822ZM88.285 13.442H87.355L87.305 12.685H87.277C86.98 13.259 86.474 13.547 85.763 13.547C85.195 13.547 84.723 13.324 84.347 12.877C83.971 12.43 83.785 11.853 83.785 11.142C83.785 10.377 83.988 9.762 84.395 9.287C84.791 8.847 85.275 8.627 85.851 8.627C86.491 8.627 86.931 8.84 87.181 9.267H87.201V6.557H88.251V12.165C88.251 12.625 88.261 13.047 88.291 13.435L88.285 13.442ZM87.2 11.45V10.663C87.21 10.4816 87.1785 10.3002 87.1077 10.1328C87.037 9.96541 86.9291 9.81635 86.792 9.697C86.5986 9.52608 86.3481 9.43401 86.09 9.439C85.7 9.439 85.393 9.591 85.168 9.902C84.945 10.212 84.832 10.612 84.832 11.098C84.832 11.564 84.939 11.942 85.154 12.233C85.381 12.543 85.687 12.699 86.07 12.699C86.414 12.699 86.69 12.569 86.898 12.309C87.1 12.069 87.198 11.784 87.198 11.449L87.2 11.45ZM97.248 11.04C97.248 11.765 97.041 12.36 96.628 12.825C96.193 13.305 95.618 13.543 94.9 13.543C94.21 13.543 93.658 13.313 93.246 12.853C92.836 12.397 92.631 11.818 92.631 11.12C92.631 10.39 92.851 9.79 93.271 9.325C93.691 8.86 94.269 8.63 94.988 8.63C95.678 8.63 96.236 8.86 96.656 9.318C97.056 9.765 97.256 10.341 97.256 11.045L97.248 11.04ZM96.162 11.074C96.162 10.642 96.068 10.269 95.882 9.958C95.66 9.582 95.348 9.394 94.94 9.394C94.52 9.394 94.2 9.581 93.98 9.957C93.79 10.267 93.698 10.647 93.698 11.095C93.698 11.532 93.792 11.905 93.978 12.215C94.206 12.592 94.522 12.78 94.93 12.78C95.33 12.78 95.645 12.59 95.87 12.205C96.064 11.888 96.162 11.512 96.162 11.075V11.074ZM102.882 13.438H101.836V10.738C101.836 9.906 101.52 9.49 100.886 9.49C100.574 9.49 100.323 9.603 100.129 9.832C99.935 10.061 99.829 10.332 99.829 10.642V13.437H98.779V10.07C98.779 9.655 98.769 9.206 98.743 8.72H99.663L99.713 9.457H99.743C99.8704 9.22326 100.057 9.0268 100.283 8.887C100.569 8.712 100.886 8.623 101.233 8.623C101.673 8.623 102.04 8.766 102.331 9.051C102.691 9.401 102.871 9.921 102.871 10.618V13.44L102.882 13.438ZM109.936 9.508H108.782V11.798C108.782 12.381 108.987 12.672 109.392 12.672C109.582 12.672 109.737 12.657 109.86 12.622L109.887 13.419C109.68 13.494 109.407 13.533 109.073 13.533C108.659 13.533 108.337 13.408 108.103 13.156C107.87 12.903 107.753 12.479 107.753 11.886V9.51H107.065V8.72H107.755V7.855L108.781 7.545V8.718H109.941V9.504L109.936 9.508ZM115.484 13.438H114.434V10.758C114.434 9.913 114.119 9.49 113.486 9.49C113 9.49 112.668 9.734 112.486 10.224C112.456 10.328 112.436 10.454 112.436 10.602V13.439H111.39V6.56H112.437V9.4H112.457C112.787 8.883 113.26 8.625 113.873 8.625C114.307 8.625 114.666 8.767 114.951 9.052C115.311 9.402 115.491 9.932 115.491 10.632V13.432L115.484 13.438ZM121.207 10.858C121.207 11.046 121.193 11.204 121.167 11.333H118.025C118.039 11.8 118.189 12.153 118.48 12.401C118.746 12.621 119.09 12.731 119.51 12.731C119.943 12.7376 120.374 12.663 120.78 12.511L120.944 13.239C120.497 13.434 119.971 13.529 119.362 13.529C118.632 13.529 118.057 13.316 117.642 12.886C117.222 12.456 117.016 11.878 117.016 11.156C117.016 10.443 117.209 9.851 117.598 9.379C118.004 8.876 118.553 8.624 119.246 8.624C119.924 8.624 120.439 8.877 120.786 9.381C121.068 9.781 121.206 10.276 121.206 10.864L121.207 10.858ZM120.207 10.588C120.222 10.305 120.151 10.0242 120.004 9.782C119.822 9.492 119.544 9.346 119.17 9.346C119.007 9.34333 118.845 9.38098 118.699 9.45563C118.554 9.53029 118.429 9.63963 118.336 9.774C118.158 10.0119 118.051 10.295 118.026 10.591H120.206L120.207 10.588Z" fill="white"/>
</g>
<defs>
<clipPath id="clip0">
<rect width="135" height="40" fill="white"/>
</clipPath>
</defs>
</svg>
