<svg width="90" height="72" viewBox="0 0 90 72" fill="none" xmlns="http://www.w3.org/2000/svg">
<path d="M71.8946 17.8401L55.0157 24.6577L62.1831 27.5652V32.5481C62.1831 33.7522 63.4816 34.8025 64.9703 34.8025H78.9059C80.3952 34.8025 81.5191 33.7522 81.5191 32.5481V27.5652L84.4801 26.3672V32.5481H87.0933V24.0046L71.8946 17.8401ZM78.9059 32.5481C78.9059 32.5865 78.9541 32.6887 78.9059 32.6887H64.9703C64.9227 32.6887 64.7964 32.5865 64.7964 32.5481V28.6216L71.8511 31.4747L78.9059 28.6216V32.5481ZM71.9381 29.1121L60.9241 24.6577L71.9381 20.2028L82.9527 24.6577L71.9381 29.1121Z" fill="#10377A"/>
<path d="M70.5445 15.6401H73.1578V14.5129H75.9449V9.01758H70.3706V7.74976H76.1187V5.63599H73.1578V4.36816H70.5445V5.63599H67.7574V11.1313H73.3316V12.3992H67.7574V14.5129H70.5445V15.6401Z" fill="#10377A"/>
<path d="M55.2153 28.0393H57.8286V34.8025H55.2153V28.0393Z" fill="#10377A"/>
<path d="M16.0219 48.3289V5.49536C16.0219 4.19183 15.5506 2.95917 14.6188 2.11377H51.0347C53.3885 2.11377 55.2154 3.59143 55.2154 5.49536V21.2761H57.8286V5.49536C57.8286 2.42633 54.829 0 51.0347 0H9.22793C5.43367 0 2.26013 2.42633 2.26013 5.49536V15.6401H13.4086V38.3247H2.26013V48.3289C2.26013 51.3973 5.43367 53.9648 9.22793 53.9648H39.8862V51.8511H14.6188C15.5506 50.8651 16.0219 49.6318 16.0219 48.3289ZM4.87339 13.5264V5.49536C4.87339 3.59143 6.78716 2.04291 9.141 2.04291C11.4942 2.04291 13.4086 3.59143 13.4086 5.49536V13.5264H4.87339ZM4.87339 48.3289V40.4385H13.4086V48.3289C13.4086 50.2322 11.4942 51.7808 9.141 51.7808C6.78716 51.7808 4.87339 50.2322 4.87339 48.3289Z" fill="#10377A"/>
<path d="M20.3764 6.76318H39.8862V8.87695H20.3764V6.76318Z" fill="#10377A"/>
<path d="M24.5571 11.272H39.8862V13.3857H24.5571V11.272Z" fill="#10377A"/>
<path d="M50.8608 6.76318H42.6733V13.3857H50.8608V6.76318ZM48.2476 11.272H45.2866V8.87695H48.2476V11.272Z" fill="#10377A"/>
<path d="M20.3764 18.0352H39.8862V20.1489H20.3764V18.0352Z" fill="#10377A"/>
<path d="M50.8608 18.0352H42.6733V24.6577H50.8608V18.0352ZM48.2476 22.5439H45.2866V20.1489H48.2476V22.5439Z" fill="#10377A"/>
<path d="M20.3764 29.3071H39.8862V31.4209H20.3764V29.3071Z" fill="#10377A"/>
<path d="M24.5571 33.8159H39.8862V35.9297H24.5571V33.8159Z" fill="#10377A"/>
<path d="M42.6733 35.9297H50.8608V29.3071H42.6733V35.9297ZM45.2866 31.4209H48.2476V33.8159H45.2866V31.4209Z" fill="#10377A"/>
<path d="M20.3764 40.5791H39.8862V42.6929H20.3764V40.5791Z" fill="#10377A"/>
<path d="M24.5571 45.0879H39.8862V47.2017H24.5571V45.0879Z" fill="#10377A"/>
<path d="M25.9506 22.5439H28.7377V24.6577H25.9506V22.5439Z" fill="#10377A"/>
<path d="M31.5248 22.5439H34.312V24.6577H31.5248V22.5439Z" fill="#10377A"/>
<path d="M37.0991 22.5439H39.8862V24.6577H37.0991V22.5439Z" fill="#10377A"/>
<path d="M48.2476 49.4561H67.5835V41.7063H48.2476V49.4561ZM50.8608 43.8201H64.9703V47.3423H50.8608V43.8201Z" fill="#10377A"/>
<path d="M42.6733 72H73.1578V37.1975H42.6733V72ZM45.2866 39.3113H70.5445V69.8862H45.2866V39.3113Z" fill="#10377A"/>
<path d="M59.3961 67.4912H67.5836V60.8687H59.3961V67.4912ZM62.0093 62.9824H64.9703V65.3774H62.0093V62.9824Z" fill="#10377A"/>
<path d="M59.3961 58.4736H67.5836V51.8511H59.3961V58.4736ZM62.0093 53.9648H64.9703V56.3599H62.0093V53.9648Z" fill="#10377A"/>
<path d="M48.2476 67.4912H56.4351V60.8687H48.2476V67.4912ZM50.8608 62.9824H53.8218V65.3774H50.8608V62.9824Z" fill="#10377A"/>
<path d="M48.2476 58.4736H56.4351V51.8511H48.2476V58.4736ZM50.8608 53.9648H53.8218V56.3599H50.8608V53.9648Z" fill="#10377A"/>
</svg>
