<svg width="57" height="57" viewBox="0 0 57 57" fill="none" xmlns="http://www.w3.org/2000/svg">
<g clip-path="url(#clip0)">
<path d="M32.2042 4.17999H25.2042V6.51329H32.2042V4.17999Z" fill="#10377A"/>
<path d="M19.3707 42.68H17.0374V45.0133H19.3707V42.68Z" fill="#10377A"/>
<path d="M19.3707 38.0133H17.0374V40.3466H19.3707V38.0133Z" fill="#10377A"/>
<path d="M24.0375 42.68H21.7042V45.0133H24.0375V42.68Z" fill="#10377A"/>
<path d="M50.8708 20.5133C49.2592 20.5133 46.8284 21.0696 45.0376 22.7467V4.17999C45.0376 2.24701 43.4705 0.679993 41.5376 0.679993H15.8709C13.9379 0.679993 12.3708 2.24701 12.3708 4.17999V18.18H8.87085C6.93787 18.18 5.37085 19.747 5.37085 21.68V24.0133C5.37085 24.9098 5.70838 25.7274 6.2628 26.3466C5.70838 26.9659 5.37085 27.7833 5.37085 28.6799V31.0132C5.37085 31.9097 5.70838 32.7273 6.2628 33.3465C5.70838 33.9658 5.37085 34.7832 5.37085 35.6798V38.0131C5.37085 38.9096 5.70838 39.7272 6.2628 40.3464C5.70838 40.9656 5.37085 41.7831 5.37085 42.6797V45.013C5.37085 46.9459 6.93787 48.513 8.87085 48.513H12.3708V53.18C12.3708 55.113 13.9379 56.68 15.8709 56.68H41.5376C43.4705 56.68 45.0376 55.113 45.0376 53.18V27.8738C45.2244 25.3759 47.1469 23.2917 49.7043 22.9691V55.5133H52.0376V21.68C52.0374 21.0357 51.5152 20.5133 50.8708 20.5133ZM15.8709 3.01329H41.5376C42.1818 3.01329 42.7041 3.53566 42.7041 4.17999V7.67999H14.7041V4.17999C14.7041 3.53566 15.2265 3.01329 15.8709 3.01329ZM7.70415 38.0133V35.68C7.70415 35.0357 8.22652 34.5133 8.87085 34.5133H12.3708V39.18H8.87085C8.22652 39.18 7.70415 38.6576 7.70415 38.0133ZM7.70415 31.0133V28.68C7.70415 28.0357 8.22652 27.5133 8.87085 27.5133H12.3708V32.18H8.87085C8.22652 32.18 7.70415 31.6576 7.70415 31.0133ZM7.70415 21.68C7.70415 21.0357 8.22652 20.5133 8.87085 20.5133H12.3708V25.18H8.87085C8.22652 25.18 7.70415 24.6576 7.70415 24.0133V21.68ZM8.87085 46.18C8.22652 46.18 7.70415 45.6576 7.70415 45.0133V42.68C7.70415 42.0357 8.22652 41.5133 8.87085 41.5133H12.3708V46.18H8.87085ZM41.5374 54.3467H15.8709C15.2265 54.3467 14.7041 53.8243 14.7041 53.18V49.68H42.7041V53.18C42.7041 53.8243 42.1818 54.3467 41.5374 54.3467ZM42.7041 47.3467H14.7041V40.3467V33.3467V26.3467V19.3467V10.0133H42.7041V47.3467Z" fill="#10377A"/>
<path d="M28.7041 17.0133C22.2608 17.0133 17.0374 22.2366 17.0374 28.68C17.0374 35.1234 22.2608 40.3467 28.7041 40.3467C35.1446 40.3396 40.3637 35.1205 40.3708 28.68C40.3708 22.2367 35.1474 17.0133 28.7041 17.0133ZM28.7041 38.0133C23.5495 38.0133 19.3708 33.8346 19.3708 28.68C19.3708 23.5254 23.5495 19.3467 28.7041 19.3467C33.8563 19.3525 38.0316 23.5278 38.0374 28.68C38.0374 33.8346 33.8588 38.0133 28.7041 38.0133Z" fill="#10377A"/>
<path d="M28.7042 25.18C29.3485 25.18 29.8709 25.7024 29.8709 26.3467H32.2042C32.2042 24.8229 31.2301 23.5272 29.8709 23.0466V21.68H27.5376V23.0466C26.1783 23.5271 25.2042 24.8229 25.2042 26.3467C25.2042 28.2797 26.7712 29.8467 28.7042 29.8467C29.3485 29.8467 29.8709 30.3691 29.8709 31.0134C29.8709 31.6577 29.3485 32.1801 28.7042 32.1801C28.0598 32.1801 27.5375 31.6577 27.5375 31.0134H25.2042C25.2042 32.5372 26.1783 33.8329 27.5375 34.3135V35.68H29.8708V34.3134C31.23 33.8328 32.2041 32.5371 32.2041 31.0133C32.2041 29.0803 30.637 27.5133 28.7041 27.5133C28.0597 27.5133 27.5374 26.9909 27.5374 26.3466C27.5375 25.7024 28.0598 25.18 28.7042 25.18Z" fill="#10377A"/>
<path d="M40.3708 12.3467H38.0375V14.68H40.3708V12.3467Z" fill="#10377A"/>
<path d="M40.3708 17.0133H38.0375V19.3466H40.3708V17.0133Z" fill="#10377A"/>
<path d="M35.7041 12.3467H33.3708V14.68H35.7041V12.3467Z" fill="#10377A"/>
</g>
<defs>
<clipPath id="clip0">
<rect x="0.704163" y="0.679993" width="56" height="56" fill="white"/>
</clipPath>
</defs>
</svg>
