<svg width="57" height="57" viewBox="0 0 57 57" fill="none" xmlns="http://www.w3.org/2000/svg">
<g opacity="0.56">
<g clip-path="url(#clip0)">
<path d="M44.9209 34.73C43.8219 32.4387 39.8902 29.2583 36.0916 26.1853C33.9729 24.4726 31.9709 22.8533 30.6946 21.577C30.3749 21.255 29.8966 21.1523 29.4743 21.304C28.688 21.5887 28.2026 21.808 27.82 21.9783C27.2367 22.2396 27.0407 22.3283 26.2543 22.4076C25.9066 22.4426 25.594 22.6293 25.4003 22.9186C23.7506 25.3849 22.0426 25.1749 20.9016 24.7923C20.5376 24.671 20.4723 24.5146 20.4373 24.3653C20.1923 23.341 21.422 20.9563 23.0156 19.3626C26.8073 15.5686 28.7626 14.6189 32.8926 16.4646C37.5779 18.5599 42.2726 20.2003 42.3193 20.2166C42.933 20.4289 43.5933 20.1069 43.8056 19.4979C44.0156 18.8889 43.6959 18.2239 43.0869 18.0116C43.0402 17.9953 38.4389 16.3876 33.8469 14.3319C28.4966 11.9402 25.5612 13.5152 21.3682 17.7106C19.7722 19.3066 17.6045 22.5359 18.1645 24.9043C18.4048 25.9123 19.1142 26.659 20.1688 27.0066C22.8125 27.8793 25.2251 27.0439 27.0218 24.6593C27.7638 24.545 28.1675 24.377 28.7741 24.104C28.9934 24.006 29.2501 23.8917 29.5908 23.754C30.9255 25.007 32.7268 26.4653 34.6238 27.9983C38.0538 30.7726 41.9435 33.918 42.8185 35.738C43.2502 36.6363 42.7858 37.222 42.4708 37.4903C42.0088 37.887 41.3765 38.013 41.0335 37.7726C40.6555 37.5136 40.1632 37.4973 39.7735 37.7306C39.3815 37.9639 39.1622 38.4049 39.2112 38.8576C39.2905 39.5996 38.6115 40.0243 38.3175 40.1713C37.5708 40.5493 36.7915 40.484 36.4998 40.2133C36.1731 39.91 35.7041 39.8213 35.2888 39.9753C34.8735 40.1316 34.5841 40.5143 34.5421 40.9576C34.4721 41.7229 33.9051 42.4579 33.1653 42.7449C32.8083 42.8802 32.2903 42.9619 31.8261 42.5372C31.5368 42.2759 31.1354 42.1755 30.7598 42.2665C30.3795 42.3598 30.0738 42.6352 29.9408 43.0015C29.8965 43.1182 29.7961 43.3982 28.7041 43.3982C27.9271 43.3982 26.5294 42.8732 25.8458 42.4205C25.0268 41.8815 19.8911 38.0502 15.4555 34.3355C14.8325 33.8105 13.7545 32.6858 12.8025 31.6918C11.9578 30.8098 11.1855 30.0095 10.7888 29.6735C10.2918 29.2535 9.55676 29.3165 9.14376 29.8112C8.72846 30.3035 8.78905 31.0409 9.28146 31.4562C9.64316 31.7619 10.3432 32.5015 11.1155 33.3065C12.1562 34.3938 13.2318 35.5185 13.9552 36.1252C18.2999 39.7629 23.5219 43.6899 24.5625 44.3735C25.4212 44.9382 27.2715 45.7315 28.7042 45.7315C29.8545 45.7315 30.7389 45.4678 31.3525 44.9522C32.1738 45.2719 33.1072 45.2742 34.0055 44.9242C35.0672 44.5135 35.9398 43.6852 36.4345 42.6819C37.3538 42.8779 38.4062 42.7402 39.3628 42.2596C40.2985 41.7883 40.9751 41.0673 41.3111 40.2249C42.2398 40.2739 43.1964 39.9449 43.9874 39.2659C45.3269 38.1203 45.6955 36.3377 44.9209 34.73Z" fill="#10377A"/>
<path d="M24.0374 15.3983H13.5374C12.8934 15.3983 12.3707 15.921 12.3707 16.565C12.3707 17.209 12.8934 17.7317 13.5374 17.7317H24.0374C24.6814 17.7317 25.2041 17.209 25.2041 16.565C25.2041 15.921 24.6814 15.3983 24.0374 15.3983Z" fill="#10377A"/>
<path d="M48.3392 32.2472C47.9775 31.7129 47.2542 31.5659 46.7199 31.9299L43.3086 34.2212C42.7743 34.5805 42.6319 35.3062 42.9913 35.8405C43.2176 36.1742 43.5863 36.3562 43.962 36.3562C44.1837 36.3562 44.41 36.2932 44.6107 36.1579L48.022 33.8666C48.5562 33.5072 48.6985 32.7816 48.3392 32.2472Z" fill="#10377A"/>
<path d="M41.0965 37.8147C40.2612 37.1567 36.5255 33.3324 34.2155 30.9244C33.7698 30.4577 33.0302 30.4414 32.5658 30.8894C32.0991 31.3351 32.0851 32.0747 32.5308 32.5391C33.1305 33.1644 38.4201 38.6781 39.6498 39.6488C39.8621 39.8168 40.1188 39.8985 40.3708 39.8985C40.7138 39.8985 41.0568 39.7445 41.2901 39.4528C41.6892 38.9487 41.6029 38.2137 41.0965 37.8147Z" fill="#10377A"/>
<path d="M36.4344 40.155C35.0367 39.0373 31.5252 35.3063 30.7317 34.443C30.293 33.967 29.558 33.939 29.082 34.373C28.6083 34.8093 28.5757 35.549 29.012 36.0227C29.054 36.067 33.2447 40.5914 34.976 41.9774C35.1907 42.1477 35.4497 42.2317 35.704 42.2317C36.0447 42.2317 36.3853 42.08 36.6163 41.7954C37.0178 41.2913 36.9361 40.5563 36.4344 40.155Z" fill="#10377A"/>
<path d="M31.7912 42.5047C30.1275 41.1024 26.7232 37.4787 26.0582 36.767C25.6172 36.2957 24.8775 36.27 24.4085 36.711C23.9372 37.152 23.9138 37.8893 24.3525 38.3607C25.3092 39.385 28.5665 42.8384 30.2862 44.2897C30.5055 44.474 30.7715 44.565 31.0375 44.565C31.3688 44.565 31.7002 44.4227 31.9312 44.1497C32.3465 43.655 32.2835 42.92 31.7912 42.5047Z" fill="#10377A"/>
<path d="M14.3402 13.3847C12.3405 11.4899 4.34416 10.8762 1.94087 10.7339C1.60957 10.7176 1.30387 10.8272 1.07057 11.0489C0.837163 11.2682 0.704163 11.5762 0.704163 11.8982V32.8983C0.704163 33.5423 1.22687 34.065 1.87087 34.065H8.87087C9.37487 34.065 9.82287 33.7407 9.97916 33.26C10.1495 32.7373 14.1699 20.3987 14.6995 14.3319C14.7299 13.9772 14.5992 13.6272 14.3402 13.3847ZM8.01916 31.7317H3.03746V13.1489C6.78716 13.4452 10.8332 14.0892 12.3032 14.8032C11.6849 19.9132 8.88716 28.9923 8.01916 31.7317Z" fill="#10377A"/>
<path d="M55.5374 13.0649C46.3768 13.0649 41.2948 15.4099 41.0825 15.5079C40.7792 15.6502 40.5528 15.9139 40.4595 16.2336C40.3662 16.5533 40.4128 16.8963 40.5878 17.1809C42.0298 19.5026 46.5447 32.3966 47.4127 35.5419C47.5527 36.0482 48.0125 36.3982 48.5375 36.3982H55.5374C56.1814 36.3982 56.7041 35.8755 56.7041 35.2315V14.2315C56.7041 13.5852 56.1814 13.0649 55.5374 13.0649ZM54.3709 34.0649H49.4102C48.3042 30.4622 45.0375 21.0682 43.2152 17.1856C44.9955 16.5813 48.8199 15.5429 54.3709 15.4123V34.0649Z" fill="#10377A"/>
</g>
</g>
<defs>
<clipPath id="clip0">
<rect x="0.704163" y="0.231995" width="56" height="56" fill="white"/>
</clipPath>
</defs>
</svg>
