<svg width="56" height="57" viewBox="0 0 56 57" fill="none" xmlns="http://www.w3.org/2000/svg">
<g clip-path="url(#clip0)">
<path d="M28 4.60809C27.3943 4.60809 26.9073 5.09591 26.9073 5.70075C26.9073 6.2637 27.3309 6.73215 27.8906 6.78772C28.5387 6.85203 29.0927 6.34726 29.0927 5.70075C29.0927 5.09503 28.6049 4.60809 28 4.60809Z" fill="#10377A"/>
<path d="M49.875 6.79449C46.8595 6.79449 44.4062 4.34121 44.4062 1.32574C44.4062 0.721776 43.9165 0.231995 43.3125 0.231995H12.6875C12.0835 0.231995 11.5938 0.721776 11.5938 1.32574C11.5938 4.34121 9.14047 6.79449 6.125 6.79449C5.52103 6.79449 5.03125 7.28428 5.03125 7.88824V25.7372C5.03125 39.6471 14.0979 52.1113 27.6859 56.1859C27.7884 56.2166 27.8941 56.232 28 56.232C28.1059 56.232 28.2119 56.2166 28.3142 56.1858C41.6079 52.1981 50.9688 39.9514 50.9688 25.7372V7.88824C50.9688 7.28428 50.479 6.79449 49.875 6.79449ZM48.7812 25.7372C48.7812 38.8018 40.4446 50.116 28 53.9945C15.6546 50.1469 7.21875 38.7302 7.21875 25.7372V8.90412C10.5668 8.42309 13.2223 5.76757 13.7034 2.41949H42.2966C42.7777 5.76757 45.4332 8.42309 48.7812 8.90412V25.7372Z" fill="#10377A"/>
<path d="M45.9388 10.3481C43.6579 9.34917 41.8516 7.54284 40.8527 5.26193C40.6783 4.86403 40.2852 4.60699 39.8508 4.60699H32.3728C31.7688 4.60699 31.2791 5.09678 31.2791 5.70074C31.2791 6.30471 31.7688 6.79449 32.3728 6.79449H39.1592C40.3148 9.05648 42.1443 10.8859 44.4062 12.0415V25.7372C44.4062 36.4409 37.9806 45.6765 28 49.3735C18.0194 45.6764 11.5938 36.4409 11.5938 25.7372V12.0415C13.8557 10.8859 15.6851 9.05648 16.8408 6.79449H23.6272C24.2312 6.79449 24.7209 6.30471 24.7209 5.70074C24.7209 5.09678 24.2312 4.60699 23.6272 4.60699H16.1492C15.7148 4.60699 15.3217 4.86414 15.1473 5.26193C14.1484 7.54284 12.3421 9.34917 10.0612 10.3481C9.66339 10.5224 9.40625 10.9156 9.40625 11.35V25.7372C9.40625 37.4636 16.659 47.6836 27.6351 51.5678C27.7531 51.6096 27.8765 51.6305 28 51.6305C28.1235 51.6305 28.2469 51.6096 28.3649 51.5678C39.3318 47.6869 46.5938 37.4731 46.5938 25.7372V11.35C46.5938 10.9155 46.3366 10.5224 45.9388 10.3481Z" fill="#10377A"/>
<path d="M28 16.2007C22.5722 16.2007 18.1562 20.6167 18.1562 26.0445C18.1562 31.4723 22.5722 35.8882 28 35.8882C33.4278 35.8882 37.8438 31.4723 37.8438 26.0445C37.8438 20.6167 33.4278 16.2007 28 16.2007ZM28 33.7007C23.7783 33.7007 20.3438 30.2662 20.3438 26.0445C20.3438 21.8228 23.7783 18.3882 28 18.3882C32.2217 18.3882 35.6562 21.8228 35.6562 26.0445C35.6562 30.2662 32.2217 33.7007 28 33.7007Z" fill="#10377A"/>
<path d="M33.1484 23.0835C32.7211 22.6565 32.0288 22.6565 31.6015 23.0835L26.9062 27.7789L25.4921 26.3649C25.0649 25.9379 24.3725 25.9379 23.9452 26.3649C23.5181 26.792 23.5181 27.4845 23.9452 27.9118L26.1327 30.0993C26.3464 30.3126 26.6262 30.4195 26.9062 30.4195C27.1862 30.4195 27.466 30.3126 27.6796 30.0991L33.1484 24.6304C33.5755 24.2033 33.5755 23.5107 33.1484 23.0835Z" fill="#10377A"/>
</g>
<defs>
<clipPath id="clip0">
<rect y="0.231995" width="56" height="56" fill="white"/>
</clipPath>
</defs>
</svg>
