<svg width="56" height="57" viewBox="0 0 56 57" fill="none" xmlns="http://www.w3.org/2000/svg">
<g clip-path="url(#clip0)">
<path d="M33.9393 35.8284H30.7376C29.5734 35.8284 28.6304 34.8854 28.6304 33.7212C28.6304 32.5569 29.5734 31.6139 30.7376 31.6139H36.3726C37.141 31.6139 37.7697 30.9852 37.7697 30.2168C37.7697 29.4484 37.141 28.8197 36.3726 28.8197H33.7297V26.8754C33.7297 26.107 33.101 25.4783 32.3326 25.4783C31.5642 25.4783 30.9356 26.107 30.9356 26.8754V28.8197H30.7376C28.0366 28.8197 25.8362 31.0201 25.8362 33.7212C25.8362 36.4222 28.0366 38.6226 30.7376 38.6226H33.9393C35.1035 38.6226 36.0466 39.5656 36.0466 40.7299C36.0466 41.8941 35.1035 42.8372 33.9393 42.8372H28.1996C27.4312 42.8372 26.8025 43.4659 26.8025 44.2343C26.8025 45.0027 27.4312 45.6313 28.1996 45.6313H30.9472V47.6222C30.9472 48.3906 31.5759 49.0193 32.3443 49.0193C33.1127 49.0193 33.7414 48.3906 33.7414 47.6222V45.6313H33.9742C33.9859 45.6313 33.9975 45.6313 34.0092 45.6313C36.6869 45.5964 38.8408 43.4076 38.8408 40.7299C38.8408 38.0289 36.6403 35.8284 33.9393 35.8284Z" fill="#10377A"/>
<path d="M53.3355 32.6617C51.8686 29.2854 49.8428 26.0139 47.2815 22.9519C44.1846 19.2264 41.0994 16.7349 39.5277 15.5823L45.4653 4.56856C45.7563 4.02136 45.6632 3.3461 45.2091 2.91534C43.6723 1.41346 42.0424 0.679993 40.2262 0.679993C38.5613 0.679993 37.0362 1.30868 35.7089 1.86752C34.6611 2.29829 33.6715 2.71741 32.8682 2.71741C32.6237 2.71741 32.4141 2.68249 32.2046 2.60099C29.4337 1.5881 27.3031 0.959411 25.2424 0.959411C22.6345 0.959411 20.4108 2.00723 18.2337 4.24257C17.7796 4.70827 17.7098 5.44174 18.0707 5.98893L24.474 15.6638C22.8906 16.8397 19.8636 19.3079 16.8249 22.9519C14.2753 26.0139 12.2378 29.2854 10.7709 32.6617C8.93139 36.9112 8 41.3469 8 45.8409C8 51.8135 12.8665 56.68 18.8391 56.68H45.2674C51.2399 56.68 56.1064 51.8135 56.1064 45.8409C56.1064 41.3469 55.175 36.9112 53.3355 32.6617ZM21.0511 5.40681C22.4017 4.24257 23.694 3.7303 25.2424 3.7303C26.8956 3.7303 28.7584 4.28914 31.2383 5.20889C31.7505 5.39517 32.2977 5.48831 32.8565 5.48831C34.2187 5.48831 35.5227 4.95276 36.7684 4.42885C37.9676 3.92823 39.1085 3.45089 40.2146 3.45089C40.7501 3.45089 41.5069 3.54403 42.4615 4.21929L36.8732 14.6043H27.1401L21.0511 5.40681ZM45.2674 53.8858H18.8391C14.4033 53.8858 10.7942 50.2767 10.7942 45.8409C10.7942 38.3781 13.5301 31.2995 18.9089 24.8031C22.3085 20.6933 25.7663 18.1436 26.8141 17.3985H37.269C38.3285 18.132 41.7746 20.6933 45.1742 24.8031C50.5647 31.2995 53.289 38.3665 53.289 45.8409C53.3123 50.2767 49.7031 53.8858 45.2674 53.8858Z" fill="#10377A"/>
</g>
<defs>
<clipPath id="clip0">
<rect y="0.679993" width="56" height="56" fill="white"/>
</clipPath>
</defs>
</svg>
