<svg width="57" height="57" viewBox="0 0 57 57" fill="none" xmlns="http://www.w3.org/2000/svg">
<g clip-path="url(#clip0)">
<path d="M46.9607 10.5917V5.37065C46.9575 2.79465 44.8701 0.707246 42.2941 0.703979H4.96073C2.38473 0.707246 0.297334 2.79465 0.294067 5.37065V25.904C0.301301 28.2875 2.108 30.2808 4.47913 30.5226L7.98753 39.6298C8.91433 42.0345 11.6149 43.2325 14.0199 42.3068L35.9287 33.8672C34.4149 37.8215 34.8456 42.2574 37.0912 45.8467L37.6274 46.7042V55.7706C37.6274 56.2863 38.0451 56.704 38.5607 56.704H55.3607C55.8764 56.704 56.2941 56.2863 56.2941 55.7706V24.9625C56.2852 21.7348 55.0002 18.6422 52.7182 16.3595L46.9607 10.5917ZM46.9607 16.1735L49.7934 23.5268C50.3485 24.9702 49.6291 26.5897 48.186 27.1453L46.5669 27.7706C46.8254 27.1822 46.9593 26.5461 46.9607 25.904V16.1735ZM2.16073 25.904V5.37065C2.16073 3.82458 3.41467 2.57065 4.96073 2.57065H42.2941C43.8401 2.57065 45.0941 3.82458 45.0941 5.37065V11.3029H45.0859L45.0941 11.3241V25.904C45.0868 26.0668 45.0656 26.2283 45.0306 26.3874L36.4813 17.8372C34.5595 15.9598 31.4959 15.9453 29.5569 17.8031C27.6174 19.6621 27.501 22.7234 29.2946 24.7231L32.9393 28.704H4.96073C3.41467 28.704 2.16073 27.45 2.16073 25.904ZM14.1177 30.5706L7.48073 33.1259L6.49887 30.5706H14.1177ZM13.3486 40.5645C11.9057 41.1208 10.2852 40.4014 9.72913 38.9585L8.1546 34.864L19.2958 30.5706V30.565H34.6501L35.8632 31.8876L13.3486 40.5645ZM54.4274 54.8373H39.4941V47.3706H54.4274V54.8373ZM54.4274 45.504H39.0787L38.6739 44.8572C36.3982 41.2204 36.3077 36.627 38.4375 32.904C38.6391 32.5516 38.5897 32.1092 38.3153 31.8101L30.6668 23.4661C29.5263 22.2178 29.5905 20.2879 30.8115 19.1186C32.033 17.9492 33.9638 17.9683 35.1613 19.1611L50.0342 34.0305L51.3539 32.7108L47.9006 29.2574L48.8582 28.8841C51.2611 27.9571 52.4585 25.2588 51.5341 22.8545L48.375 14.6515L51.3985 17.6813C53.3305 19.6128 54.4199 22.2304 54.4274 24.9625V45.504Z" fill="#10377A"/>
<path d="M10.9341 13.7707C12.2743 13.7707 13.3607 12.6843 13.3607 11.344V6.86398C13.3607 5.52372 12.2743 4.43732 10.9341 4.43732H6.45407C5.11381 4.43732 4.0274 5.52372 4.0274 6.86398V11.344C4.0274 12.6843 5.11381 13.7707 6.45407 13.7707H10.9341ZM5.89407 11.344V10.0373H7.76074V8.17065H5.89407V6.86398C5.89407 6.55482 6.14491 6.30398 6.45407 6.30398H10.9341C11.2432 6.30398 11.4941 6.55482 11.4941 6.86398V8.17065H9.62741V10.0373H11.4941V11.344C11.4941 11.6532 11.2432 11.904 10.9341 11.904H6.45407C6.14491 11.904 5.89407 11.6532 5.89407 11.344Z" fill="#10377A"/>
<path d="M4.96072 16.5706H8.69406V18.4373H4.96072V16.5706Z" fill="#10377A"/>
<path d="M4.96072 22.1707H8.69406V24.0373H4.96072V22.1707Z" fill="#10377A"/>
<path d="M21.7607 22.1707H25.4941V24.0373H21.7607V22.1707Z" fill="#10377A"/>
<path d="M10.5607 16.5706H14.2941V18.4373H10.5607V16.5706Z" fill="#10377A"/>
<path d="M16.1607 16.5706H19.8941V18.4373H16.1607V16.5706Z" fill="#10377A"/>
<path d="M21.7607 16.5706H25.4941V18.4373H21.7607V16.5706Z" fill="#10377A"/>
<path d="M39.4941 5.37067H41.3607V8.17066H39.4941V5.37067Z" fill="#10377A"/>
<path d="M35.7607 5.37067H37.6274V8.17066H35.7607V5.37067Z" fill="#10377A"/>
<path d="M32.0274 5.37067H33.8941V8.17066H32.0274V5.37067Z" fill="#10377A"/>
<path d="M28.2941 5.37067H30.1607V8.17066H28.2941V5.37067Z" fill="#10377A"/>
<path d="M41.3607 49.2373H43.2274V51.104H41.3607V49.2373Z" fill="#10377A"/>
</g>
<defs>
<clipPath id="clip0">
<rect x="0.294067" y="0.703979" width="56" height="56" fill="white"/>
</clipPath>
</defs>
</svg>
