<svg width="72" height="72" viewBox="0 0 72 72" fill="none" xmlns="http://www.w3.org/2000/svg">
<path d="M29.5796 40.8296L26.2654 44.1439C24.2078 41.9107 21.2692 40.5 18 40.5C11.7968 40.5 6.75 45.5468 6.75 51.75C6.75 57.9533 11.7968 63 18 63C24.2033 63 29.25 57.9533 29.25 51.75C29.25 49.6316 28.6504 47.6561 27.6289 45.9619L31.1704 42.4204L29.5796 40.8296ZM27 51.75C27 56.7124 22.9624 60.75 18 60.75C13.0376 60.75 9 56.7124 9 51.75C9 46.7876 13.0376 42.75 18 42.75C20.6483 42.75 23.0265 43.9076 24.6746 45.7346L16.875 53.5342L14.2954 50.9546L12.7046 52.5454L16.875 56.7158L25.9819 47.6089C26.6287 48.8498 27 50.256 27 51.75Z" fill="white"/>
<path d="M65.25 14.625H41.625V5.625H5.625V32.625H34.875V65.25C34.875 68.3516 37.3984 70.875 40.5 70.875H65.25C68.3516 70.875 70.875 68.3516 70.875 65.25V20.25C70.875 17.1484 68.3516 14.625 65.25 14.625ZM14.625 7.875V14.625H7.875V7.875H14.625ZM34.875 20.25V30.375H7.875V16.875H16.875V7.875H39.375V14.7386C36.8111 15.2618 34.875 17.5343 34.875 20.25ZM68.625 65.25C68.625 67.1107 67.1107 68.625 65.25 68.625H40.5C38.6393 68.625 37.125 67.1107 37.125 65.25V20.25C37.125 18.3892 38.6393 16.875 40.5 16.875H65.25C67.1107 16.875 68.625 18.3892 68.625 20.25V65.25Z" fill="white"/>
<path d="M64.125 23.625H41.625C40.3841 23.625 39.375 24.6341 39.375 25.875V59.625C39.375 60.8659 40.3841 61.875 41.625 61.875H64.125C65.3659 61.875 66.375 60.8659 66.375 59.625V25.875C66.375 24.6341 65.3659 23.625 64.125 23.625ZM41.625 59.625V25.875H64.125L64.1272 59.625H41.625Z" fill="white"/>
<path d="M43.875 7.875H46.125V1.125H39.375V3.375H43.875V7.875Z" fill="white"/>
<path d="M7.875 34.875H3.375V30.375H1.125V37.125H7.875V34.875Z" fill="white"/>
<path d="M3.375 3.375H7.875V1.125H1.125V7.875H3.375V3.375Z" fill="white"/>
<path d="M10.125 10.125H12.375V12.375H10.125V10.125Z" fill="white"/>
<path d="M52.875 37.125C54.1159 37.125 55.125 38.1341 55.125 39.375H57.375C57.375 37.2836 55.9361 35.5376 54 35.0348V32.625H51.75V34.875H48.375V39.375C48.375 41.8568 50.3932 43.875 52.875 43.875C54.1159 43.875 55.125 44.8841 55.125 46.125V48.375H52.875C51.6341 48.375 50.625 47.3659 50.625 46.125H48.375C48.375 48.2164 49.8139 49.9624 51.75 50.4653V52.875H54V50.625H57.375V46.125C57.375 43.6432 55.3568 41.625 52.875 41.625C51.6341 41.625 50.625 40.6159 50.625 39.375V37.125H52.875Z" fill="white"/>
<path d="M48.375 64.125H57.375V66.375H48.375V64.125Z" fill="white"/>
<path d="M51.75 19.125H58.5V21.375H51.75V19.125Z" fill="white"/>
<path d="M47.25 19.125H49.5V21.375H47.25V19.125Z" fill="white"/>
<path d="M33.75 10.125C31.8892 10.125 30.375 11.6392 30.375 13.5V16.875H32.625V13.5C32.625 12.879 33.129 12.375 33.75 12.375H37.125V10.125H33.75Z" fill="white"/>
<path d="M23.625 13.5V16.875H25.875V13.5C25.875 11.6392 24.3608 10.125 22.5 10.125H19.125V12.375H22.5C23.121 12.375 23.625 12.879 23.625 13.5Z" fill="white"/>
<path d="M23.625 19.125H22.5C21.879 19.125 21.375 18.621 21.375 18V14.625H19.125V18C19.125 19.8608 20.6392 21.375 22.5 21.375H23.625V19.125Z" fill="white"/>
<path d="M10.125 19.125H16.875V21.375H10.125V19.125Z" fill="white"/>
<path d="M10.125 23.625H12.375V28.125H10.125V23.625Z" fill="white"/>
<path d="M16.875 24.75V23.625H14.625V24.75C14.625 26.6107 16.1392 28.125 18 28.125H21.375V25.875H18C17.379 25.875 16.875 25.371 16.875 24.75Z" fill="white"/>
<path d="M30.375 19.125H32.625V21.375H30.375V19.125Z" fill="white"/>
<path d="M25.875 24.75C25.875 25.371 25.371 25.875 24.75 25.875H23.625V28.125H24.75C26.6107 28.125 28.125 26.6108 28.125 24.75V19.125H25.875V24.75Z" fill="white"/>
<path d="M30.375 23.625H32.625V28.125H30.375V23.625Z" fill="white"/>
<path d="M48.375 28.125H50.625V30.375H48.375V28.125Z" fill="white"/>
<path d="M43.875 28.125H46.125V30.375H43.875V28.125Z" fill="white"/>
<path d="M52.875 28.125H55.125V30.375H52.875V28.125Z" fill="white"/>
<path d="M59.625 55.125H61.875V57.375H59.625V55.125Z" fill="white"/>
<path d="M50.625 55.125H52.875V57.375H50.625V55.125Z" fill="white"/>
<path d="M55.125 55.125H57.375V57.375H55.125V55.125Z" fill="white"/>
</svg>
