<svg width="57" height="57" viewBox="0 0 57 57" fill="none" xmlns="http://www.w3.org/2000/svg">
<g clip-path="url(#clip0)">
<path d="M8.60657 26.458C9.93018 26.458 11.1282 25.9269 12.0134 25.0742L16.8699 27.5022C16.8456 27.7 16.8097 27.8944 16.8097 28.0986C16.8097 30.8125 19.0177 33.0205 21.7316 33.0205C24.4454 33.0205 26.6534 30.8125 26.6534 28.0986C26.6534 27.3411 26.4672 26.6319 26.16 25.9902L32.7481 19.402C33.3898 19.7092 34.0991 19.8955 34.8566 19.8955C37.5704 19.8955 39.7784 17.6875 39.7784 14.9736C39.7784 14.4626 39.678 13.9794 39.5328 13.5159L45.257 9.22375C46.038 9.74542 46.9741 10.0518 47.9816 10.0518C50.6954 10.0518 52.9034 7.84375 52.9034 5.12988C52.9034 2.41602 50.6954 0.208008 47.9816 0.208008C45.2677 0.208008 43.0597 2.41602 43.0597 5.12988C43.0597 5.64087 43.1601 6.12408 43.3054 6.58765L37.5811 10.8798C36.8001 10.3581 35.864 10.0518 34.8566 10.0518C32.1427 10.0518 29.9347 12.2598 29.9347 14.9736C29.9347 15.7311 30.121 16.4404 30.4282 17.0821L23.84 23.6702C23.1983 23.363 22.4891 23.1768 21.7316 23.1768C20.408 23.1768 19.21 23.7078 18.3247 24.5606L13.4682 22.1326C13.4926 21.9348 13.5284 21.7404 13.5284 21.5361C13.5284 18.8223 11.3204 16.6143 8.60657 16.6143C5.8927 16.6143 3.68469 18.8223 3.68469 21.5361C3.68469 24.25 5.8927 26.458 8.60657 26.458Z" fill="#10377A"/>
<path d="M54.6534 52.9268H52.9034V18.2549C52.9034 17.3483 52.1694 16.6143 51.2628 16.6143H44.7003C43.7937 16.6143 43.0597 17.3483 43.0597 18.2549V52.9268H39.7784V28.0986C39.7784 27.192 39.0444 26.458 38.1378 26.458H31.5753C30.6687 26.458 29.9347 27.192 29.9347 28.0986V52.9268H26.6534V41.2236C26.6534 40.317 25.9194 39.583 25.0128 39.583H18.4503C17.5437 39.583 16.8097 40.317 16.8097 41.2236V52.9268H13.5284V34.6611C13.5284 33.7545 12.7944 33.0205 11.8878 33.0205H5.32532C4.4187 33.0205 3.68469 33.7545 3.68469 34.6611V52.9268H1.93469C1.02808 52.9268 0.294067 53.6608 0.294067 54.5674C0.294067 55.474 1.02808 56.208 1.93469 56.208H54.6534C55.5601 56.208 56.2941 55.474 56.2941 54.5674C56.2941 53.6608 55.5601 52.9268 54.6534 52.9268Z" fill="#10377A"/>
</g>
<defs>
<clipPath id="clip0">
<rect x="0.294067" y="0.208008" width="56" height="56" fill="white"/>
</clipPath>
</defs>
</svg>
