<svg width="90" height="72" viewBox="0 0 90 72" fill="none" xmlns="http://www.w3.org/2000/svg">
<path d="M71.9289 17.8401L55.05 24.6577L62.2174 27.5652V32.5481C62.2174 33.7522 63.5159 34.8025 65.0046 34.8025H78.9402C80.4295 34.8025 81.5534 33.7522 81.5534 32.5481V27.5652L84.5144 26.3672V32.5481H87.1277V24.0046L71.9289 17.8401ZM78.9402 32.5481C78.9402 32.5865 78.9884 32.6887 78.9402 32.6887H65.0046C64.957 32.6887 64.8307 32.5865 64.8307 32.5481V28.6216L71.8854 31.4747L78.9402 28.6216V32.5481ZM71.9724 29.1121L60.9584 24.6577L71.9724 20.2028L82.987 24.6577L71.9724 29.1121Z" fill="white"/>
<path d="M70.5788 15.6401H73.1921V14.5129H75.9792V9.01758H70.405V7.74976H76.153V5.63599H73.1921V4.36816H70.5788V5.63599H67.7917V11.1313H73.3659V12.3992H67.7917V14.5129H70.5788V15.6401Z" fill="white"/>
<path d="M55.2496 28.0393H57.8629V34.8025H55.2496V28.0393Z" fill="white"/>
<path d="M16.0562 48.3289V5.49536C16.0562 4.19183 15.5849 2.95917 14.6531 2.11377H51.069C53.4228 2.11377 55.2497 3.59143 55.2497 5.49536V21.2761H57.8629V5.49536C57.8629 2.42633 54.8633 0 51.069 0H9.26223C5.46797 0 2.29443 2.42633 2.29443 5.49536V15.6401H13.4429V38.3247H2.29443V48.3289C2.29443 51.3973 5.46797 53.9648 9.26223 53.9648H39.9205V51.8511H14.6531C15.5849 50.8651 16.0562 49.6318 16.0562 48.3289ZM4.9077 13.5264V5.49536C4.9077 3.59143 6.82146 2.04291 9.1753 2.04291C11.5285 2.04291 13.4429 3.59143 13.4429 5.49536V13.5264H4.9077ZM4.9077 48.3289V40.4385H13.4429V48.3289C13.4429 50.2322 11.5285 51.7808 9.1753 51.7808C6.82146 51.7808 4.9077 50.2322 4.9077 48.3289Z" fill="white"/>
<path d="M20.4107 6.76318H39.9205V8.87695H20.4107V6.76318Z" fill="white"/>
<path d="M24.5914 11.272H39.9205V13.3857H24.5914V11.272Z" fill="white"/>
<path d="M50.8951 6.76318H42.7076V13.3857H50.8951V6.76318ZM48.2819 11.272H45.3209V8.87695H48.2819V11.272Z" fill="white"/>
<path d="M20.4107 18.0352H39.9205V20.1489H20.4107V18.0352Z" fill="white"/>
<path d="M50.8951 18.0352H42.7076V24.6577H50.8951V18.0352ZM48.2819 22.5439H45.3209V20.1489H48.2819V22.5439Z" fill="white"/>
<path d="M20.4107 29.3071H39.9205V31.4209H20.4107V29.3071Z" fill="white"/>
<path d="M24.5914 33.8159H39.9205V35.9297H24.5914V33.8159Z" fill="white"/>
<path d="M42.7076 35.9297H50.8951V29.3071H42.7076V35.9297ZM45.3209 31.4209H48.2819V33.8159H45.3209V31.4209Z" fill="white"/>
<path d="M20.4107 40.5791H39.9205V42.6929H20.4107V40.5791Z" fill="white"/>
<path d="M24.5914 45.0879H39.9205V47.2017H24.5914V45.0879Z" fill="white"/>
<path d="M25.9849 22.5439H28.772V24.6577H25.9849V22.5439Z" fill="white"/>
<path d="M31.5591 22.5439H34.3463V24.6577H31.5591V22.5439Z" fill="white"/>
<path d="M37.1334 22.5439H39.9205V24.6577H37.1334V22.5439Z" fill="white"/>
<path d="M48.2819 49.4561H67.6178V41.7063H48.2819V49.4561ZM50.8951 43.8201H65.0046V47.3423H50.8951V43.8201Z" fill="white"/>
<path d="M42.7076 72H73.1921V37.1975H42.7076V72ZM45.3209 39.3113H70.5788V69.8862H45.3209V39.3113Z" fill="white"/>
<path d="M59.4304 67.4912H67.6179V60.8687H59.4304V67.4912ZM62.0436 62.9824H65.0046V65.3774H62.0436V62.9824Z" fill="white"/>
<path d="M59.4304 58.4736H67.6179V51.8511H59.4304V58.4736ZM62.0436 53.9648H65.0046V56.3599H62.0436V53.9648Z" fill="white"/>
<path d="M48.2819 67.4912H56.4694V60.8687H48.2819V67.4912ZM50.8951 62.9824H53.8561V65.3774H50.8951V62.9824Z" fill="white"/>
<path d="M48.2819 58.4736H56.4694V51.8511H48.2819V58.4736ZM50.8951 53.9648H53.8561V56.3599H50.8951V53.9648Z" fill="white"/>
</svg>
