<svg width="21" height="21" viewBox="0 0 21 21" fill="none" xmlns="http://www.w3.org/2000/svg">
<g clip-path="url(#clip0)">
<path d="M10.0755 9.85963C12.316 9.85963 14.1324 7.65842 14.1324 4.94309C14.1324 2.22769 13.536 0.0264893 10.0755 0.0264893C6.61502 0.0264893 6.01855 2.22769 6.01855 4.94309C6.01855 7.65842 7.83496 9.85963 10.0755 9.85963Z" fill="white"/>
<path d="M2.4129 17.3662C2.41222 17.2015 2.41153 17.3198 2.4129 17.3662V17.3662Z" fill="white"/>
<path d="M17.7378 17.4963C17.74 17.4509 17.7385 17.181 17.7378 17.4963V17.4963Z" fill="white"/>
<path d="M17.7294 17.1681C17.6542 12.4379 17.0351 11.0901 12.2971 10.2369C12.2971 10.2369 11.6302 11.0848 10.0757 11.0848C8.52118 11.0848 7.85413 10.2369 7.85413 10.2369C3.16788 11.0808 2.51108 12.4086 2.42472 17.0144C2.41763 17.3905 2.41435 17.4103 2.41309 17.3666C2.41337 17.4484 2.41372 17.5997 2.41372 17.8636C2.41372 17.8636 3.54171 20.1325 10.0757 20.1325C16.6095 20.1325 17.7377 17.8636 17.7377 17.8636C17.7377 17.6941 17.7378 17.5762 17.7379 17.496C17.7367 17.523 17.7341 17.4707 17.7294 17.1681Z" fill="white"/>
</g>
<defs>
<clipPath id="clip0">
<rect y="0.0264893" width="20.1509" height="20.106" fill="white"/>
</clipPath>
</defs>
</svg>
