<svg width="21" height="21" viewBox="0 0 21 21" fill="none" xmlns="http://www.w3.org/2000/svg">
<g clip-path="url(#clip0)">
<path d="M18.0152 2.68457H2.78836C1.42912 2.68457 0.324219 3.78701 0.324219 5.14321V15.5269C0.324219 16.8831 1.42912 17.9856 2.78836 17.9856H18.011C19.3703 17.9856 20.4752 16.8831 20.4752 15.5269V5.14737C20.4793 3.79117 19.3744 2.68457 18.0152 2.68457ZM19.3536 15.5269C19.3536 16.2633 18.7532 16.8623 18.0152 16.8623H2.78836C2.05037 16.8623 1.44997 16.2633 1.44997 15.5269V5.14737C1.44997 4.41103 2.05037 3.81197 2.78836 3.81197H18.011C18.749 3.81197 19.3494 4.41103 19.3494 5.14737V15.5269H19.3536Z" fill="white"/>
<path d="M13.0328 10.2061L17.9611 5.79634C18.1904 5.58833 18.2113 5.23472 18.0028 5.00175C17.7944 4.77294 17.4399 4.75214 17.2065 4.96015L10.4103 11.0464L9.08437 9.86495C9.0802 9.86079 9.07603 9.85663 9.07603 9.85247C9.04685 9.82335 9.01766 9.79839 8.9843 9.77343L3.58904 4.95599C3.35555 4.74798 3.00115 4.76878 2.79267 5.00175C2.5842 5.23472 2.60505 5.58833 2.83854 5.79634L7.8252 10.2435L2.85938 14.8821C2.63423 15.0943 2.62173 15.4479 2.83437 15.6767C2.94694 15.7932 3.09704 15.8556 3.24714 15.8556C3.38473 15.8556 3.52233 15.8056 3.63073 15.7058L8.6716 11.0007L10.0392 12.2196C10.1476 12.3153 10.281 12.361 10.4144 12.361C10.5478 12.361 10.6854 12.3111 10.7897 12.2154L12.1948 10.9591L17.2065 15.71C17.3149 15.814 17.4566 15.8639 17.5942 15.8639C17.7443 15.8639 17.8902 15.8056 18.0028 15.6892C18.2155 15.4645 18.2071 15.1067 17.982 14.8946L13.0328 10.2061Z" fill="white"/>
</g>
<defs>
<clipPath id="clip0">
<rect x="0.324219" y="0.282104" width="20.1509" height="20.106" fill="white"/>
</clipPath>
</defs>
</svg>
