<svg width="20" height="16" viewBox="0 0 20 16" fill="none" xmlns="http://www.w3.org/2000/svg">
<g clip-path="url(#clip0)">
<path d="M21.3122 16.3951L16.2057 11.9395C17.5187 10.6301 18.2381 8.98262 18.2381 7.26749C18.2381 3.26026 14.3519 0 9.57534 0C4.79878 0 0.912598 3.26026 0.912598 7.26749C0.912598 11.2747 4.79878 14.535 9.57534 14.535C11.3685 14.535 13.0773 14.0812 14.5383 13.2199L19.6836 17.7093C19.8987 17.8967 20.188 18 20.4979 18C20.7913 18 21.0697 17.9062 21.281 17.7355C21.7299 17.3731 21.7442 16.7721 21.3122 16.3951ZM9.57534 1.89587C13.106 1.89587 15.9782 4.30552 15.9782 7.26749C15.9782 10.2295 13.106 12.6391 9.57534 12.6391C6.04471 12.6391 3.17244 10.2295 3.17244 7.26749C3.17244 4.30552 6.04471 1.89587 9.57534 1.89587Z" fill="#6C6C6F"/>
</g>
<defs>
<clipPath id="clip0">
<rect x="0.583008" width="19.0718" height="16" fill="white"/>
</clipPath>
</defs>
</svg>
