<svg width="72" height="72" viewBox="0 0 72 72" fill="none" xmlns="http://www.w3.org/2000/svg">
<path d="M12.8443 30.2506C13.646 30.7381 15.3087 31.3115 16.5981 31.3115C17.916 31.3115 18.4607 30.8524 18.4607 30.1364C18.4607 29.4182 18.0302 29.0755 16.3981 28.5308C13.5031 27.5556 12.3851 25.9807 12.4136 24.3179C12.4136 21.7106 14.6497 19.7337 18.1157 19.7337C19.7499 19.7337 21.2129 20.1049 22.0717 20.5354L21.2985 23.5447C20.6682 23.1999 19.4644 22.7408 18.2607 22.7408C17.1998 22.7408 16.598 23.1714 16.598 23.8874C16.598 24.5464 17.1427 24.8913 18.8626 25.493C21.527 26.409 22.6449 27.7576 22.6736 29.8202C22.6736 32.4275 20.611 34.3472 16.598 34.3472C14.7639 34.3472 13.1296 33.9474 12.0709 33.3742L12.8443 30.2506Z" fill="#10377A"/>
<path d="M25.3073 24.5176C25.3073 22.7714 25.2501 21.28 25.1931 20.0477H28.8613L29.0611 21.939H29.1468C29.7487 21.0516 30.9809 19.7337 33.3883 19.7337C35.1939 19.7337 36.626 20.6496 37.2278 22.1103H37.285C37.8012 21.3943 38.4316 20.8209 39.0906 20.4213C39.866 19.9622 40.7248 19.7337 41.7572 19.7337C44.4502 19.7337 46.4863 21.625 46.4863 25.8072V34.0617H42.2448V26.4397C42.2448 24.4036 41.5835 23.2284 40.18 23.2284C39.1783 23.2284 38.4601 23.9159 38.1746 24.7483C38.0604 25.0625 38.0032 25.5215 38.0032 25.8664V34.0616H33.7617V26.209C33.7617 24.4321 33.1313 23.2284 31.7541 23.2284C30.6382 23.2284 29.9771 24.0894 29.7201 24.8055C29.5773 25.1481 29.5488 25.5502 29.5488 25.895V34.0617H25.3073V24.5176Z" fill="#10377A"/>
<path d="M49.9194 30.2506C50.7211 30.7381 52.3839 31.3115 53.6732 31.3115C54.9911 31.3115 55.5358 30.8524 55.5358 30.1364C55.5358 29.4182 55.1053 29.0755 53.4733 28.5308C50.5783 27.5556 49.4602 25.9807 49.4887 24.3179C49.4887 21.7106 51.7248 19.7337 55.191 19.7337C56.8252 19.7337 58.2859 20.1049 59.1469 20.5354L58.3737 23.5447C57.7433 23.1999 56.5396 22.7408 55.3359 22.7408C54.275 22.7408 53.6731 23.1714 53.6731 23.8874C53.6731 24.5464 54.2178 24.8913 55.9377 25.493C58.6022 26.409 59.7202 27.7576 59.7487 29.8202C59.7487 32.4275 57.6861 34.3472 53.6731 34.3472C51.839 34.3472 50.2048 33.9474 49.1461 33.3742L49.9194 30.2506Z" fill="#10377A"/>
<path d="M56.4167 72L33.8979 53.5227H7.45174C3.34862 53.5227 0.012085 50.1268 0.012085 45.9513V7.57146C0.012085 3.3959 3.34862 0 7.45174 0H64.5483C68.6514 0 71.988 3.3959 71.988 7.57146V45.9514C71.988 50.127 68.6514 53.5229 64.5483 53.5229H56.4167V72ZM7.45174 4.49853C5.83071 4.49853 4.51062 5.87799 4.51062 7.57146V45.9514C4.51062 47.6449 5.83071 49.0244 7.45174 49.0244H35.5057L51.9182 62.4891V49.0244H64.5482C66.1692 49.0244 67.4893 47.6449 67.4893 45.9514V7.57146C67.4893 5.87799 66.1692 4.49853 64.5482 4.49853H7.45174Z" fill="#10377A"/>
</svg>
